<?xml version="1.0" encoding="utf-8"?>
<!-- Generator: Adobe Illustrator 23.0.3, SVG Export Plug-In . SVG Version: 6.00 Build 0)  -->
<svg version="1.1" id="Layer_1" xmlns="http://www.w3.org/2000/svg" xmlns:xlink="http://www.w3.org/1999/xlink" x="0px" y="0px"
	 viewBox="0 0 1026.9 791.7" style="enable-background:new 0 0 1026.9 791.7;" xml:space="preserve">
<style type="text/css">
	.st0{fill:#294270;}
	.st1{fill:#F0801A;}
	.st2{font-family:'RobotoMono-Regular';}
	.st3{font-size:28.8882px;}
</style>
<g>
	<path class="st0" d="M75.6,35.7h-7.9v59.7h7.9v5.4H61.5V30.2h14.1V35.7z"/>
	<path class="st0" d="M98.7,63.6l2.6-25.9h26.7v6.4h-21.1l-1.5,13.8c1-0.6,2.2-1.1,3.7-1.6c1.4-0.5,3.1-0.7,5-0.7
		c2.4,0,4.6,0.4,6.5,1.2c1.9,0.8,3.5,2,4.9,3.5s2.4,3.3,3.1,5.5c0.7,2.1,1.1,4.5,1.1,7.1c0,2.5-0.3,4.8-1,6.9
		c-0.7,2.1-1.7,3.9-3,5.5s-3,2.7-5.1,3.6c-2,0.9-4.4,1.3-7.2,1.3c-2.1,0-4.1-0.3-6-0.9c-1.9-0.6-3.5-1.5-5-2.7
		c-1.5-1.2-2.7-2.7-3.6-4.5s-1.5-3.9-1.8-6.3h6.3c0.4,2.9,1.5,5.2,3.3,6.7c1.8,1.5,4,2.3,6.8,2.3c1.6,0,3-0.3,4.2-0.8
		c1.2-0.6,2.2-1.4,3.1-2.4c0.8-1,1.4-2.3,1.9-3.7c0.4-1.5,0.6-3.1,0.6-4.9c0-1.6-0.2-3.1-0.7-4.5s-1.1-2.6-2-3.7
		c-0.9-1-2-1.8-3.2-2.4c-1.3-0.6-2.8-0.9-4.4-0.9c-1.1,0-2,0.1-2.8,0.2c-0.8,0.2-1.5,0.4-2.2,0.7c-0.6,0.3-1.2,0.6-1.8,1
		c-0.6,0.4-1.1,0.9-1.7,1.4L98.7,63.6z"/>
	<path class="st0" d="M156.9,88.1c0,1.1-0.1,2.3-0.4,3.5c-0.3,1.2-0.7,2.4-1.2,3.6s-1.2,2.3-1.9,3.4c-0.8,1.1-1.6,2.1-2.6,2.9
		l-4.1-2.2c1.1-1.7,1.9-3.4,2.4-5.3c0.5-1.9,0.7-3.8,0.7-5.9v-6.4h7.2V88.1z"/>
	<path class="st0" d="M254.6,72.2h7.2v5.4h-7.2v12.1H248V77.5h-23.7v-3.9l23.3-36h7V72.2z M231.7,72.2H248V46.4l-1.1,2L231.7,72.2z"
		/>
	<path class="st0" d="M288.5,88.1c0,1.1-0.1,2.3-0.4,3.5c-0.3,1.2-0.7,2.4-1.2,3.6s-1.2,2.3-1.9,3.4c-0.8,1.1-1.6,2.1-2.6,2.9
		l-4.1-2.2c1.1-1.7,1.9-3.4,2.4-5.3c0.5-1.9,0.7-3.8,0.7-5.9v-6.4h7.2V88.1z"/>
	<path class="st0" d="M392.3,41.4l-21.5,48.2h-6.9l21.4-46.2h-28.1v-5.8h35.1V41.4z"/>
	<path class="st0" d="M420,88.1c0,1.1-0.1,2.3-0.4,3.5c-0.3,1.2-0.7,2.4-1.2,3.6s-1.2,2.3-1.9,3.4c-0.8,1.1-1.6,2.1-2.6,2.9
		l-4.1-2.2c1.1-1.7,2-3.4,2.4-5.3s0.7-3.8,0.7-5.9v-6.4h7.2V88.1z"/>
	<path class="st0" d="M498.7,60.5h4.7c1.7,0,3.1-0.2,4.4-0.7c1.3-0.5,2.3-1.1,3.2-1.9s1.5-1.7,2-2.8c0.5-1.1,0.7-2.3,0.7-3.6
		c0-3-0.8-5.3-2.3-6.8c-1.5-1.5-3.8-2.3-6.8-2.3c-1.4,0-2.7,0.2-3.8,0.6c-1.2,0.4-2.1,1-3,1.8c-0.8,0.8-1.5,1.7-1.9,2.8
		c-0.5,1.1-0.7,2.3-0.7,3.7h-6.6c0-2,0.4-3.8,1.2-5.6c0.8-1.7,1.9-3.3,3.3-4.6c1.4-1.3,3.1-2.3,5-3.1c2-0.7,4.1-1.1,6.5-1.1
		c2.3,0,4.5,0.3,6.4,0.9c1.9,0.6,3.6,1.6,5,2.8c1.4,1.2,2.4,2.8,3.2,4.6c0.8,1.8,1.1,3.9,1.1,6.4c0,1-0.2,2-0.5,3.1
		c-0.3,1.1-0.8,2.1-1.4,3.1c-0.6,1-1.5,2-2.5,2.9c-1,0.9-2.2,1.6-3.6,2.2c1.7,0.5,3.1,1.3,4.2,2.1c1.1,0.9,2,1.9,2.7,3
		s1.2,2.2,1.4,3.5c0.3,1.2,0.4,2.4,0.4,3.6c0,2.4-0.4,4.6-1.2,6.5c-0.8,1.9-2,3.5-3.5,4.8c-1.5,1.3-3.2,2.3-5.2,3
		c-2,0.7-4.2,1-6.5,1c-2.3,0-4.4-0.3-6.4-1c-2-0.6-3.8-1.6-5.2-2.8c-1.5-1.2-2.6-2.7-3.5-4.5c-0.9-1.8-1.3-3.8-1.3-6.1h6.6
		c0,1.4,0.2,2.6,0.7,3.7s1.1,2.1,2,2.9c0.9,0.8,1.9,1.4,3.1,1.8c1.2,0.4,2.6,0.6,4.1,0.6c1.5,0,2.9-0.2,4.1-0.6
		c1.2-0.4,2.2-1,3.1-1.8c0.9-0.8,1.5-1.8,2-3c0.5-1.2,0.7-2.6,0.7-4.3c0-1.6-0.3-3-0.8-4.2c-0.5-1.2-1.3-2.2-2.2-2.9
		c-1-0.8-2.1-1.4-3.5-1.7c-1.4-0.4-2.9-0.6-4.5-0.6h-4.7V60.5z"/>
	<path class="st0" d="M551.5,88.1c0,1.1-0.1,2.3-0.4,3.5c-0.3,1.2-0.7,2.4-1.2,3.6s-1.2,2.3-1.9,3.4c-0.8,1.1-1.6,2.1-2.6,2.9
		l-4.1-2.2c1.1-1.7,2-3.4,2.4-5.3s0.7-3.8,0.7-5.9v-6.4h7.2V88.1z"/>
	<path class="st0" d="M649.3,72.2h7.2v5.4h-7.2v12.1h-6.6V77.5H619v-3.9l23.3-36h7V72.2z M626.3,72.2h16.4V46.4l-1.1,2L626.3,72.2z"
		/>
	<path class="st0" d="M683.1,88.1c0,1.1-0.1,2.3-0.4,3.5c-0.3,1.2-0.7,2.4-1.2,3.6s-1.2,2.3-1.9,3.4c-0.8,1.1-1.6,2.1-2.6,2.9
		l-4.1-2.2c1.1-1.7,2-3.4,2.4-5.3s0.7-3.8,0.7-5.9v-6.4h7.2V88.1z"/>
	<path class="st0" d="M756.4,63.6l2.6-25.9h26.7v6.4h-21.1l-1.5,13.8c1-0.6,2.2-1.1,3.7-1.6c1.4-0.5,3.1-0.7,5-0.7
		c2.4,0,4.6,0.4,6.5,1.2c1.9,0.8,3.5,2,4.9,3.5c1.3,1.5,2.4,3.3,3.1,5.5c0.7,2.1,1.1,4.5,1.1,7.1c0,2.5-0.3,4.8-1,6.9
		c-0.7,2.1-1.7,3.9-3,5.5c-1.3,1.5-3,2.7-5.1,3.6c-2,0.9-4.4,1.3-7.2,1.3c-2.1,0-4.1-0.3-6-0.9c-1.9-0.6-3.5-1.5-5-2.7
		c-1.5-1.2-2.7-2.7-3.6-4.5s-1.5-3.9-1.8-6.3h6.3c0.4,2.9,1.5,5.2,3.3,6.7c1.8,1.5,4,2.3,6.8,2.3c1.6,0,3-0.3,4.2-0.8
		s2.2-1.4,3.1-2.4c0.8-1,1.4-2.3,1.9-3.7c0.4-1.5,0.6-3.1,0.6-4.9c0-1.6-0.2-3.1-0.7-4.5c-0.5-1.4-1.1-2.6-2-3.7s-2-1.8-3.2-2.4
		c-1.3-0.6-2.8-0.9-4.4-0.9c-1.1,0-2,0.1-2.8,0.2c-0.8,0.2-1.5,0.4-2.2,0.7c-0.6,0.3-1.2,0.6-1.8,1c-0.6,0.4-1.1,0.9-1.7,1.4
		L756.4,63.6z"/>
	<path class="st0" d="M814.6,88.1c0,1.1-0.1,2.3-0.4,3.5c-0.3,1.2-0.7,2.4-1.2,3.6s-1.2,2.3-1.9,3.4c-0.8,1.1-1.6,2.1-2.6,2.9
		l-4.1-2.2c1.1-1.7,2-3.4,2.4-5.3s0.7-3.8,0.7-5.9v-6.4h7.2V88.1z"/>
	<path class="st0" d="M912.3,72.2h7.2v5.4h-7.2v12.1h-6.6V77.5h-23.7v-3.9l23.3-36h7V72.2z M889.4,72.2h16.4V46.4l-1.1,2L889.4,72.2
		z"/>
	<path class="st0" d="M937.7,30.2h14.2v70.5h-14.2v-5.4h7.9V35.7h-7.9V30.2z"/>
</g>
<g>
	<path class="st0" d="M33,301.3h-7.9V361H33v5.4H18.9v-70.5H33V301.3z"/>
	<path class="st1" d="M76.9,389H69v59.7h7.9v5.4H62.7v-70.5h14.1V389z"/>
	<path class="st0" d="M99.9,416.9l2.6-25.9h26.7v6.4h-21.1l-1.5,13.8c1-0.6,2.2-1.1,3.7-1.6c1.4-0.5,3.1-0.7,5-0.7
		c2.4,0,4.6,0.4,6.5,1.2c1.9,0.8,3.5,2,4.9,3.5s2.4,3.3,3.1,5.5c0.7,2.1,1.1,4.5,1.1,7.1c0,2.5-0.3,4.8-1,6.9
		c-0.7,2.1-1.7,3.9-3,5.5s-3,2.7-5.1,3.6c-2,0.9-4.4,1.3-7.2,1.3c-2.1,0-4.1-0.3-6-0.9c-1.9-0.6-3.5-1.5-5-2.7
		c-1.5-1.2-2.7-2.7-3.6-4.5s-1.5-3.9-1.8-6.3h6.3c0.4,2.9,1.5,5.2,3.3,6.7c1.8,1.5,4,2.3,6.8,2.3c1.6,0,3-0.3,4.2-0.8
		c1.2-0.6,2.2-1.4,3.1-2.4c0.8-1,1.4-2.3,1.9-3.7c0.4-1.5,0.6-3.1,0.6-4.9c0-1.6-0.2-3.1-0.7-4.5s-1.1-2.6-2-3.7
		c-0.9-1-2-1.8-3.2-2.4c-1.3-0.6-2.8-0.9-4.4-0.9c-1.1,0-2,0.1-2.8,0.2c-0.8,0.2-1.5,0.4-2.2,0.7c-0.6,0.3-1.2,0.6-1.8,1
		c-0.6,0.4-1.1,0.9-1.7,1.4L99.9,416.9z"/>
	<path class="st0" d="M158.2,441.4c0,1.1-0.1,2.3-0.4,3.5c-0.3,1.2-0.7,2.4-1.2,3.6s-1.2,2.3-1.9,3.4c-0.8,1.1-1.6,2.1-2.6,2.9
		l-4.1-2.2c1.1-1.7,1.9-3.4,2.4-5.3c0.5-1.9,0.7-3.8,0.7-5.9v-6.4h7.2V441.4z"/>
	<path class="st0" d="M255.9,425.5h7.2v5.4h-7.2V443h-6.6v-12.1h-23.7V427l23.3-36h7V425.5z M232.9,425.5h16.4v-25.7l-1.1,2
		L232.9,425.5z"/>
	<path class="st0" d="M289.7,441.4c0,1.1-0.1,2.3-0.4,3.5c-0.3,1.2-0.7,2.4-1.2,3.6s-1.2,2.3-1.9,3.4c-0.8,1.1-1.6,2.1-2.6,2.9
		l-4.1-2.2c1.1-1.7,1.9-3.4,2.4-5.3c0.5-1.9,0.7-3.8,0.7-5.9v-6.4h7.2V441.4z"/>
	<path class="st0" d="M393.6,394.7L372.1,443h-6.9l21.4-46.2h-28.1V391h35.1V394.7z"/>
	<path class="st1" d="M412.8,383.6h14.2v70.5h-14.2v-5.4h7.9V389h-7.9V383.6z"/>
	<path class="st0" d="M465.1,441.4c0,1.1-0.1,2.3-0.4,3.5c-0.3,1.2-0.7,2.4-1.2,3.6s-1.2,2.3-1.9,3.4c-0.8,1.1-1.6,2.1-2.6,2.9
		l-4.1-2.2c1.1-1.7,2-3.4,2.4-5.3s0.7-3.8,0.7-5.9v-6.4h7.2V441.4z"/>
	<path class="st1" d="M76.9,476.7H69v59.7h7.9v5.4H62.7v-70.5h14.1V476.7z"/>
	<path class="st0" d="M105.3,501.5h4.7c1.7,0,3.1-0.2,4.4-0.7c1.3-0.5,2.3-1.1,3.2-1.9c0.9-0.8,1.5-1.7,2-2.8
		c0.5-1.1,0.7-2.3,0.7-3.6c0-3-0.8-5.3-2.3-6.8c-1.5-1.5-3.8-2.3-6.8-2.3c-1.4,0-2.7,0.2-3.8,0.6c-1.2,0.4-2.1,1-3,1.8
		s-1.5,1.7-1.9,2.8c-0.5,1.1-0.7,2.3-0.7,3.7h-6.6c0-2,0.4-3.8,1.2-5.6c0.8-1.7,1.9-3.3,3.3-4.6c1.4-1.3,3.1-2.3,5-3.1
		c2-0.7,4.1-1.1,6.5-1.1c2.3,0,4.5,0.3,6.4,0.9c1.9,0.6,3.6,1.6,5,2.8c1.4,1.2,2.4,2.8,3.2,4.6c0.8,1.8,1.1,3.9,1.1,6.4
		c0,1-0.2,2-0.5,3.1c-0.3,1.1-0.8,2.1-1.4,3.1c-0.6,1-1.5,2-2.5,2.9c-1,0.9-2.2,1.6-3.6,2.2c1.7,0.5,3.1,1.3,4.2,2.1
		c1.1,0.9,2,1.9,2.7,3c0.7,1.1,1.2,2.2,1.4,3.5c0.3,1.2,0.4,2.4,0.4,3.6c0,2.4-0.4,4.6-1.2,6.5c-0.8,1.9-2,3.5-3.5,4.8
		c-1.5,1.3-3.2,2.3-5.2,3c-2,0.7-4.2,1-6.5,1c-2.3,0-4.4-0.3-6.4-1c-2-0.6-3.8-1.6-5.2-2.8c-1.5-1.2-2.6-2.7-3.5-4.5
		c-0.9-1.8-1.3-3.8-1.3-6.1h6.6c0,1.4,0.2,2.6,0.7,3.7c0.5,1.1,1.1,2.1,2,2.9c0.9,0.8,1.9,1.4,3.1,1.8c1.2,0.4,2.6,0.6,4.1,0.6
		c1.5,0,2.9-0.2,4.1-0.6s2.2-1,3.1-1.8c0.9-0.8,1.5-1.8,2-3c0.5-1.2,0.7-2.6,0.7-4.3c0-1.6-0.3-3-0.8-4.2c-0.5-1.2-1.3-2.2-2.2-2.9
		c-1-0.8-2.1-1.4-3.5-1.7c-1.4-0.4-2.9-0.6-4.5-0.6h-4.7V501.5z"/>
	<path class="st0" d="M158.2,529.1c0,1.1-0.1,2.3-0.4,3.5c-0.3,1.2-0.7,2.4-1.2,3.6s-1.2,2.3-1.9,3.4c-0.8,1.1-1.6,2.1-2.6,2.9
		l-4.1-2.2c1.1-1.7,1.9-3.4,2.4-5.3c0.5-1.9,0.7-3.8,0.7-5.9v-6.4h7.2V529.1z"/>
	<path class="st0" d="M255.9,513.2h7.2v5.4h-7.2v12.1h-6.6v-12.1h-23.7v-3.9l23.3-36h7V513.2z M232.9,513.2h16.4v-25.7l-1.1,2
		L232.9,513.2z"/>
	<path class="st0" d="M289.7,529.1c0,1.1-0.1,2.3-0.4,3.5c-0.3,1.2-0.7,2.4-1.2,3.6s-1.2,2.3-1.9,3.4c-0.8,1.1-1.6,2.1-2.6,2.9
		l-4.1-2.2c1.1-1.7,1.9-3.4,2.4-5.3c0.5-1.9,0.7-3.8,0.7-5.9v-6.4h7.2V529.1z"/>
	<path class="st0" d="M363,504.6l2.6-25.9h26.7v6.4h-21.1l-1.5,13.8c1-0.6,2.2-1.1,3.7-1.6c1.4-0.5,3.1-0.7,5-0.7
		c2.4,0,4.6,0.4,6.5,1.2c1.9,0.8,3.5,2,4.9,3.5c1.3,1.5,2.4,3.3,3.1,5.5c0.7,2.1,1.1,4.5,1.1,7.1c0,2.5-0.3,4.8-1,6.9
		c-0.7,2.1-1.7,3.9-3,5.5c-1.3,1.5-3,2.7-5.1,3.6c-2,0.9-4.4,1.3-7.2,1.3c-2.1,0-4.1-0.3-6-0.9c-1.9-0.6-3.5-1.5-5-2.7
		c-1.5-1.2-2.7-2.7-3.6-4.5s-1.5-3.9-1.8-6.3h6.3c0.4,2.9,1.5,5.2,3.3,6.7c1.8,1.5,4,2.3,6.8,2.3c1.6,0,3-0.3,4.2-0.8
		s2.2-1.4,3.1-2.4c0.8-1,1.4-2.3,1.9-3.7c0.4-1.5,0.6-3.1,0.6-4.9c0-1.6-0.2-3.1-0.7-4.5c-0.5-1.4-1.1-2.6-2-3.7s-2-1.8-3.2-2.4
		c-1.3-0.6-2.8-0.9-4.4-0.9c-1.1,0-2,0.1-2.8,0.2c-0.8,0.2-1.5,0.4-2.2,0.7c-0.6,0.3-1.2,0.6-1.8,1c-0.6,0.4-1.1,0.9-1.7,1.4
		L363,504.6z"/>
	<path class="st1" d="M412.8,471.3h14.2v70.5h-14.2v-5.4h7.9v-59.7h-7.9V471.3z"/>
	<path class="st0" d="M465.1,529.1c0,1.1-0.1,2.3-0.4,3.5c-0.3,1.2-0.7,2.4-1.2,3.6s-1.2,2.3-1.9,3.4c-0.8,1.1-1.6,2.1-2.6,2.9
		l-4.1-2.2c1.1-1.7,2-3.4,2.4-5.3s0.7-3.8,0.7-5.9v-6.4h7.2V529.1z"/>
	<path class="st1" d="M76.9,564.4H69V624h7.9v5.4H62.7v-70.5h14.1V564.4z"/>
	<path class="st0" d="M124.4,600.9h7.2v5.4h-7.2v12.1h-6.6v-12.1H94.1v-3.9l23.3-36h7V600.9z M101.4,600.9h16.4v-25.7l-1.1,2
		L101.4,600.9z"/>
	<path class="st1" d="M149.7,558.9h14.2v70.5h-14.2V624h7.9v-59.7h-7.9V558.9z"/>
	<path class="st0" d="M18.1,646.6h14.2v70.5H18.1v-5.4h7.9v-59.7h-7.9V646.6z"/>
</g>
<g>
	<path class="st1" d="M76.3,181.2h-7.9v59.7h7.9v5.4H62.2v-70.5h14.1V181.2z"/>
	<path class="st1" d="M236.3,206h4.7c1.7,0,3.1-0.2,4.4-0.7c1.3-0.5,2.3-1.1,3.2-1.9c0.9-0.8,1.5-1.7,2-2.8c0.5-1.1,0.7-2.3,0.7-3.6
		c0-3-0.8-5.3-2.3-6.8c-1.5-1.5-3.8-2.3-6.8-2.3c-1.4,0-2.7,0.2-3.8,0.6c-1.2,0.4-2.1,1-3,1.8s-1.5,1.7-1.9,2.8
		c-0.5,1.1-0.7,2.3-0.7,3.7h-6.6c0-2,0.4-3.8,1.2-5.6c0.8-1.7,1.9-3.3,3.3-4.6c1.4-1.3,3.1-2.3,5-3.1c2-0.7,4.1-1.1,6.5-1.1
		c2.3,0,4.5,0.3,6.4,0.9c1.9,0.6,3.6,1.6,5,2.8c1.4,1.2,2.4,2.8,3.2,4.6c0.8,1.8,1.1,3.9,1.1,6.4c0,1-0.2,2-0.5,3.1
		c-0.3,1.1-0.8,2.1-1.4,3.1c-0.6,1-1.5,2-2.5,2.9c-1,0.9-2.2,1.6-3.6,2.2c1.7,0.5,3.1,1.3,4.2,2.1c1.1,0.9,2,1.9,2.7,3
		c0.7,1.1,1.2,2.2,1.4,3.5c0.3,1.2,0.4,2.4,0.4,3.6c0,2.4-0.4,4.6-1.2,6.5c-0.8,1.9-2,3.5-3.5,4.8c-1.5,1.3-3.2,2.3-5.2,3
		c-2,0.7-4.2,1-6.5,1c-2.3,0-4.4-0.3-6.4-1c-2-0.6-3.8-1.6-5.2-2.8c-1.5-1.2-2.6-2.7-3.5-4.5c-0.9-1.8-1.3-3.8-1.3-6.1h6.6
		c0,1.4,0.2,2.6,0.7,3.7c0.5,1.1,1.1,2.1,2,2.9c0.9,0.8,1.9,1.4,3.1,1.8c1.2,0.4,2.6,0.6,4.1,0.6c1.5,0,2.9-0.2,4.1-0.6
		s2.2-1,3.1-1.8c0.9-0.8,1.5-1.8,2-3c0.5-1.2,0.7-2.6,0.7-4.3c0-1.6-0.3-3-0.8-4.2c-0.5-1.2-1.3-2.2-2.2-2.9c-1-0.8-2.1-1.4-3.5-1.7
		c-1.4-0.4-2.9-0.6-4.5-0.6h-4.7V206z"/>
	<path class="st1" d="M412.2,175.8h14.2v70.5h-14.2v-5.4h7.9v-59.7h-7.9V175.8z"/>
	<path class="st1" d="M474.7,181.2h-7.9v59.7h7.9v5.4h-14.1v-70.5h14.1V181.2z"/>
	<path class="st1" d="M872.4,181.2h-7.9v59.7h7.9v5.4h-14.1v-70.5h14.1V181.2z"/>
	<path class="st1" d="M810.6,175.8h14.2v70.5h-14.2v-5.4h7.9v-59.7h-7.9V175.8z"/>
</g>
<text transform="matrix(1 0 0 1 159.4487 271.8174)" class="st1 st2 st3">chunk-size</text>
</svg>
